<svg height="512pt" viewBox="0 -9 512 512" width="512pt" xmlns="http://www.w3.org/2000/svg"><path d="m474.6875 152.257812c0-4.941406-.335938-9.8125-.972656-14.574218l38.285156-35.839844-29.695312-51.429688-50.238282 15.257813c-7.65625-5.925781-16.121094-10.847656-25.191406-14.589844l-11.890625-51.082031h-59.390625l-11.890625 51.082031c-9.066406 3.742188-17.53125 8.664063-25.191406 14.589844l-50.238281-15.257813-29.691407 51.429688 38.28125 35.839844c-.636719 4.761718-.972656 9.632812-.972656 14.574218 0 4.941407.335937 9.8125.972656 14.578126l-38.28125 35.835937 29.691407 51.429687 50.238281-15.253906c7.660156 5.921875 16.125 10.84375 25.191406 14.585938l11.890625 51.09375h59.390625l11.890625-51.09375c9.070312-3.742188 17.535156-8.664063 25.191406-14.585938l50.238282 15.253906 29.695312-51.429687-38.285156-35.835937c.636718-4.765626.972656-9.636719.972656-14.578126zm-109.398438 46.328126c-25.585937 0-46.328124-20.738282-46.328124-46.328126 0-25.589843 20.742187-46.328124 46.328124-46.328124 25.589844 0 46.332032 20.738281 46.332032 46.328124 0 25.589844-20.742188 46.328126-46.332032 46.328126zm0 0" fill="#ccc"/><path d="m491.65625 401.554688c0-2.65625-.175781-5.257813-.523438-7.816407l20.53125-19.214843-15.921874-27.574219-26.9375 8.179687c-4.105469-3.175781-8.640626-5.808594-13.5-7.816406l-6.382813-27.394531h-31.835937l-6.375 27.394531c-4.859376 2.007812-9.394532 4.640625-13.5 7.816406l-26.9375-8.179687-15.921876 27.574219 20.53125 19.214843c-.34375 2.558594-.523437 5.160157-.523437 7.816407 0 2.652343.179687 5.253906.523437 7.8125l-20.53125 19.21875 15.921876 27.570312 26.9375-8.179688c4.105468 3.175782 8.640624 5.808594 13.5 7.816407l6.375 27.394531h31.835937l6.382813-27.394531c4.859374-2.007813 9.394531-4.640625 13.5-7.816407l26.9375 8.179688 15.921874-27.570312-20.53125-19.21875c.347657-2.558594.523438-5.160157.523438-7.8125zm-58.648438 21.15625c-11.679687 0-21.160156-9.476563-21.160156-21.15625 0-11.683594 9.480469-21.160157 21.160156-21.160157 11.683594 0 21.160157 9.476563 21.160157 21.160157 0 11.679687-9.476563 21.15625-21.160157 21.15625zm0 0" fill="#ccc"/><path d="m282.445312 431.570312v62.160157h-272.546874v-62.160157c0-26.710937 21.648437-48.355468 48.347656-48.355468h175.839844c26.707031 0 48.359374 21.644531 48.359374 48.355468zm0 0" fill="#3b485b"/><path d="m282.445312 431.570312v62.160157h-255.980468v-62.160157c0-26.710937 21.648437-48.355468 48.355468-48.355468h159.265626c26.707031 0 48.359374 21.644531 48.359374 48.355468zm0 0" fill="#515f75"/><path d="m59.609375 383.21875-2.933594 74.363281 31.257813 7.816407-28.066406 28.066406h172.601562l-28.066406-28.066406 31.261718-7.816407-2.933593-74.363281" fill="#3b485b"/><path d="m205.761719 383.21875-31.484375 110.507812h-56.210938l-31.484375-110.507812" fill="#f2f2f2"/><path d="m107.65625 410.347656 38.515625 48.210938 38.132813-48.027344-38.132813-7.128906z" fill="#f74866"/><path d="m104.273438 445.304688 41.898437-41.902344 41.898437 41.902344 17.691407-62.085938h-119.179688zm0 0" fill="#e6e6e6"/><path d="m181.992188 321.128906v62.09375l-35.820313 20.179688-11.066406-6.230469-24.757813-13.949219v-62.132812l24.757813.011718zm0 0" fill="#f9c2af"/><path d="m118.261719 493.726562 27.910156-35.167968 28.105469 35.167968" fill="#f74866"/><path d="m135.105469 321.101562-24.757813-.007812v62.128906l24.757813 13.949219v-28.726563c3.65625.359376 7.359375.5625 11.117187.5625 12.503906 0 24.539063-2.039062 35.769532-5.8125v-42.0625zm0 0" fill="#ea9e8f"/><path d="m33.773438 255.757812c-18.652344 0-33.773438-13.535156-33.773438-30.234374 0-16.695313 15.121094-30.230469 33.773438-30.230469h224.898437c18.652344 0 33.773437 13.535156 33.773437 30.230469 0 16.699218-15.121093 30.234374-33.773437 30.234374" fill="#ea9e8f"/><path d="m258.675781 129.125v112.457031c0 62.097657-50.347656 112.445313-112.457031 112.445313-31.042969 0-59.164062-12.589844-79.511719-32.933594-20.34375-20.347656-32.933593-48.46875-32.933593-79.511719v-112.457031zm0 0" fill="#f9c2af"/><path d="m145.421875 354.023438c-30.734375-.207032-58.53125-12.75-78.714844-32.925782-20.351562-20.359375-32.9375-48.464844-32.9375-79.519531v-112.453125h50.628907v112.453125c0 31.054687 6.914062 59.160156 18.105468 79.515625 11.015625 20.035156 26.164063 32.539062 42.917969 32.929688zm0 0" fill="#ea9e8f"/><path d="m186.226562 240.351562c-4.121093 0-7.460937-3.335937-7.460937-7.457031v-15.625c0-4.121093 3.339844-7.457031 7.460937-7.457031 4.117188 0 7.457032 3.335938 7.457032 7.457031v15.625c0 4.121094-3.339844 7.457031-7.457032 7.457031zm0 0" fill="#293544"/><path d="m106.21875 240.351562c-4.117188 0-7.457031-3.335937-7.457031-7.457031v-15.625c0-4.121093 3.339843-7.457031 7.457031-7.457031 4.121094 0 7.460938 3.335938 7.460938 7.457031v15.625c0 4.121094-3.339844 7.457031-7.460938 7.457031zm0 0" fill="#293544"/><path d="m258.675781 129.125v28.179688c-7.707031 5.519531-16.921875 10.363281-27.871093 14.308593-40.75 14.679688-80.199219 9.734375-108.09375 1.960938 0 0-.007813 0-.007813-.011719-24.304687-6.761719-39.835937-15.691406-39.835937-15.691406s-10.253907 49.351562-49.09375 49.351562v-78.101562h224.902343zm0 0" fill="#ea9e8f"/><path d="m230.800781 159.679688c-40.746093 14.683593-80.195312 9.742187-108.09375 1.964843 0 0-.007812 0-.007812-.007812-24.296875-6.773438-39.828125-15.699219-39.828125-15.699219s-10.257813 49.351562-49.097656 49.351562c0 0-25.839844-45.707031-25.027344-87.996093.417968-21.933594 18.5-38.335938 39.054687-38.335938 3.835938 0 7.765625.566407 11.671875 1.789063 11.011719-29.5625 40.09375-48.269532 71.578125-46.355469 4.902344.304687 9.835938.695313 14.789063 1.144531.949218.078125 1.90625.164063 2.851562.253906.097656.007813.195313.019532.292969.027344 51.394531 4.828125 103.453125 14.226563 134.039063-19.613281 0 0 50.554687 116.453125-52.222657 153.476563zm0 0" fill="#515f75"/><path d="m131.050781 24.390625c4.902344.304687 9.835938.695313 14.789063 1.144531-45.347656-1.914062-81.375 97.953125-23.144532 136.097656-24.292968-6.769531-39.824218-15.695312-39.824218-15.695312s-10.257813 49.351562-49.101563 49.351562c0 0-25.835937-45.710937-25.027343-88 .421874-21.929687 18.503906-38.332031 39.058593-38.332031 3.835938 0 7.765625.566407 11.671875 1.789063 11.011719-29.5625 40.089844-48.269532 71.578125-46.355469zm0 0" fill="#3b485b"/><path d="m149.003906 25.828125c-.105468-.019531-.203125-.027344-.3125-.039063.097656.011719.195313.019532.292969.03125zm0 0" fill="#f4af9d"/><path d="m146.222656 300.109375c-11.902344 0-23.804687-4.53125-32.863281-13.589844-2.910156-2.910156-2.910156-7.636719 0-10.546875 2.914063-2.914062 7.636719-2.914062 10.546875 0 12.304688 12.304688 32.328125 12.304688 44.628906 0 2.914063-2.910156 7.636719-2.910156 10.546875 0 2.914063 2.914063 2.914063 7.636719 0 10.546875-9.058593 9.058594-20.960937 13.589844-32.859375 13.589844zm0 0" fill="#e06e86"/></svg>