<svg width="927" height="892" viewBox="0 0 927 892" fill="none" xmlns="http://www.w3.org/2000/svg">
<path opacity="0.5" d="M266.847 21.2664C166.311 102.741 150.731 256.803 82.6411 370.46C58.9384 410.009 28.3114 445.403 12.3321 489.277C-24.3538 589.701 26.1364 703.615 93.7157 783.376C125.941 821.426 163.581 856.286 209.122 872.324C244.143 884.657 281.695 885.171 318.558 885.492L964.389 891.916C1036.5 892.622 1116.61 890.074 1168.46 836.244C1204.19 799.179 1218.7 745.048 1231.02 693.38C1246.16 629.892 1259.87 560.945 1236.33 500.476C1209.43 431.292 1141.4 392.086 1099.15 332.389C1030.57 235.669 1032.15 89.3792 944.815 12.1661C904.045 -23.8709 850.248 -38.0031 797.827 -45.0692C698.999 -58.4091 605.387 -33.2282 508.335 -36.7398C425.375 -39.7375 335.669 -34.5129 266.847 21.2664Z" fill="#E7ECFF"/>
<g clip-path="url(#clip0)">
<path d="M346.374 727C372.432 727 393.556 722.728 393.556 717.459C393.556 712.19 372.432 707.918 346.374 707.918C320.316 707.918 299.191 712.19 299.191 717.459C299.191 722.728 320.316 727 346.374 727Z" fill="#6C63FF"/>
<path d="M345.581 720.969C348.614 720.969 351.072 717.584 351.072 713.407C351.072 709.231 348.614 705.845 345.581 705.845C342.548 705.845 340.09 709.231 340.09 713.407C340.09 717.584 342.548 720.969 345.581 720.969Z" fill="#3F3D56"/>
<path d="M345.581 711.727C348.614 711.727 351.072 708.341 351.072 704.164C351.072 699.988 348.614 696.602 345.581 696.602C342.548 696.602 340.09 699.988 340.09 704.164C340.09 708.341 342.548 711.727 345.581 711.727Z" fill="#3F3D56"/>
<path d="M345.581 702.484C348.614 702.484 351.072 699.098 351.072 694.922C351.072 690.745 348.614 687.36 345.581 687.36C342.548 687.36 340.09 690.745 340.09 694.922C340.09 699.098 342.548 702.484 345.581 702.484Z" fill="#3F3D56"/>
<path d="M345.581 693.248C348.614 693.248 351.072 689.862 351.072 685.686C351.072 681.509 348.614 678.124 345.581 678.124C342.548 678.124 340.09 681.509 340.09 685.686C340.09 689.862 342.548 693.248 345.581 693.248Z" fill="#3F3D56"/>
<path d="M345.581 684.005C348.614 684.005 351.072 680.62 351.072 676.443C351.072 672.267 348.614 668.881 345.581 668.881C342.548 668.881 340.09 672.267 340.09 676.443C340.09 680.62 342.548 684.005 345.581 684.005Z" fill="#3F3D56"/>
<path d="M345.581 674.763C348.614 674.763 351.072 671.377 351.072 667.201C351.072 663.024 348.614 659.638 345.581 659.638C342.548 659.638 340.09 663.024 340.09 667.201C340.09 671.377 342.548 674.763 345.581 674.763Z" fill="#3F3D56"/>
<path d="M345.581 665.52C348.614 665.52 351.072 662.134 351.072 657.958C351.072 653.781 348.614 650.396 345.581 650.396C342.548 650.396 340.09 653.781 340.09 657.958C340.09 662.134 342.548 665.52 345.581 665.52Z" fill="#3F3D56"/>
<path d="M366.147 594.716C366.899 593.713 367.584 592.655 368.196 591.552L353.76 589.058L369.369 589.18C370.868 585.755 371.685 582.044 371.772 578.274C371.858 574.505 371.211 570.757 369.872 567.259L348.932 578.684L368.267 563.776C366.456 560.492 364.021 557.635 361.115 555.383C358.208 553.13 354.892 551.531 351.372 550.684C347.852 549.837 344.204 549.761 340.655 550.461C337.107 551.16 333.733 552.62 330.743 554.749C327.754 556.878 325.214 559.632 323.28 562.838C321.346 566.044 320.061 569.634 319.504 573.385C318.946 577.136 319.129 580.967 320.041 584.64C320.953 588.313 322.574 591.75 324.803 594.736C323.634 596.302 322.627 597.994 321.8 599.785L340.541 610.017L320.562 602.969C319.157 607.329 318.809 611.988 319.549 616.525C320.29 621.061 322.096 625.332 324.803 628.949C321.75 633.03 319.85 637.932 319.321 643.095C318.793 648.257 319.657 653.472 321.814 658.142C323.972 662.813 327.336 666.751 331.521 669.506C335.707 672.262 340.546 673.723 345.484 673.723C350.423 673.723 355.262 672.262 359.448 669.506C363.633 666.751 366.997 662.813 369.155 658.142C371.312 653.472 372.176 648.257 371.647 643.095C371.119 637.932 369.219 633.03 366.166 628.949C369.815 624.072 371.799 618.048 371.799 611.843C371.799 605.638 369.815 599.613 366.166 594.736L366.147 594.716Z" fill="#6C63FF"/>
<path opacity="0.1" d="M319.177 611.812C319.169 618.018 321.154 624.044 324.81 628.915C321.756 632.996 319.856 637.898 319.328 643.061C318.799 648.223 319.663 653.438 321.821 658.109C323.978 662.779 327.342 666.717 331.528 669.473C335.714 672.228 340.552 673.689 345.491 673.689C350.429 673.689 355.268 672.228 359.454 669.473C363.64 666.717 367.004 662.779 369.161 658.109C371.319 653.438 372.183 648.223 371.654 643.061C371.125 637.898 369.226 632.996 366.172 628.915C369.678 624.219 319.177 608.716 319.177 611.812Z" fill="black"/>
<path d="M574.965 602.326C575.364 607.747 577.349 613.357 581.526 616.556C585.702 619.754 592.346 619.693 595.537 615.397C596.608 613.784 597.396 611.983 597.863 610.078C600.551 601.147 602.458 591.376 599.513 582.533C592.868 582.079 585.167 578.792 580.179 584.566C576.151 589.268 574.501 596.058 574.965 602.326Z" fill="#3F3D56"/>
<path d="M605.81 547.69C604.927 555.57 603.425 563.417 603.58 571.352C603.638 574.415 603.947 577.451 603.954 580.527C603.965 588.515 601.964 596.364 598.153 603.274C597.752 604.087 597.215 604.817 596.568 605.429C595.04 606.73 592.74 606.622 591.025 605.626C589.35 604.53 587.99 602.978 587.088 601.133C582.286 592.487 582.151 581.977 580.25 572.172C578.793 564.671 576.241 557.4 575.319 549.811C574.72 544.925 574.81 539.945 573.856 535.12C573.566 533.663 572.754 531.474 572.219 529.326C571.73 527.409 571.459 525.525 571.962 524.231C572.986 521.581 576.344 522.611 578.529 522.774C586.223 523.374 593.949 523.353 601.64 522.713C602.4 522.652 603.264 522.618 603.799 523.187C604.032 523.475 604.208 523.809 604.315 524.17C604.927 525.931 605.395 527.745 605.713 529.591C606.776 535.493 606.48 541.679 605.81 547.69Z" fill="#FABDBD"/>
<g opacity="0.1">
<path opacity="0.1" d="M602.845 522.713C602.449 522.669 602.049 522.669 601.653 522.713C597.966 523.025 594.274 523.18 590.587 523.201C594.673 523.21 598.759 523.047 602.845 522.713Z" fill="black"/>
<path opacity="0.1" d="M592.327 605.626C590.652 604.53 589.291 602.978 588.389 601.133C583.588 592.487 583.453 581.977 581.552 572.172C580.095 564.671 577.543 557.4 576.621 549.811C576.022 544.925 576.112 539.945 575.158 535.12C574.868 533.663 574.056 531.474 573.521 529.326C573.032 527.409 572.761 525.525 573.264 524.231C573.477 523.7 573.837 523.249 574.296 522.935C574.755 522.621 575.294 522.459 575.841 522.469C574.211 522.354 572.619 522.557 571.975 524.231C571.472 525.525 571.743 527.409 572.232 529.326C572.767 531.474 573.579 533.663 573.869 535.12C574.823 539.945 574.733 544.925 575.332 549.811C576.254 557.407 578.806 564.678 580.263 572.172C582.164 581.977 582.299 592.5 587.101 601.133C588.002 602.978 589.363 604.53 591.038 605.626C592.067 606.224 593.246 606.475 594.415 606.344C593.683 606.243 592.975 606 592.327 605.626Z" fill="black"/>
</g>
<path d="M630.178 589.248C626.311 597.379 626.955 608.899 626.955 608.899C627.6 636.003 617.288 692.923 617.288 692.923H608.265C608.265 692.923 606.976 629.905 608.265 624.484C609.554 619.063 607.621 600.09 605.687 573.663C604.25 554.012 608.162 536.204 610.263 528.391C610.985 525.681 611.488 524.197 611.488 524.197C611.488 524.197 626.311 501.158 634.689 512C636.622 514.521 637.647 519.609 638.002 526.033C639.149 547.229 633.142 583.007 630.178 589.248Z" fill="#FABDBD"/>
<path opacity="0.1" d="M638.002 526.033C637.647 519.609 636.635 514.514 634.689 512C632.82 509.587 630.629 508.856 628.36 509.174C630.118 509.481 631.694 510.494 632.755 512C634.689 514.521 635.714 519.609 636.068 526.033C637.215 547.229 631.209 583.007 628.244 589.248C624.377 597.379 625.022 608.899 625.022 608.899C625.666 636.003 615.354 692.923 615.354 692.923H617.288C617.288 692.923 627.6 636.003 626.955 608.899C626.955 608.899 626.311 597.379 630.178 589.248C633.142 583.007 639.149 547.229 638.002 526.033Z" fill="black"/>
<path d="M603.573 690.449C602.853 691.044 602.23 691.758 601.73 692.564C600.576 694.854 602.213 697.592 603.966 699.414C605.719 701.237 607.833 703.189 607.833 705.784C607.833 707.871 606.332 709.66 604.649 710.771C603.747 711.367 602.613 712.126 602.8 713.251C602.865 713.536 602.981 713.805 603.141 714.044C604.585 716.368 607.144 717.73 609.734 718.245C612.325 718.76 615 718.537 617.636 718.313C618.031 718.328 618.416 718.188 618.719 717.92C618.909 717.65 619.011 717.321 619.008 716.985C619.137 715.548 619.054 714.03 619.653 712.736C620.491 710.968 622.418 710.066 623.52 708.481C625.067 706.312 624.854 703.297 624.267 700.661C622.979 694.922 620.111 688.376 615.805 684.398C610.817 679.831 606.905 687.15 603.573 690.449Z" fill="#3F3D56"/>
<path d="M623.101 348.898C626.697 343.247 625.763 335.346 622.089 329.722C618.416 324.097 612.512 320.56 606.422 318.277C598.211 315.2 589.156 314.15 580.72 316.461C574.005 318.297 567.972 322.139 561.643 325.107C550.447 330.36 538.273 332.907 526.017 332.561C512.412 332.161 497.505 328.495 486.091 336.315C465.197 350.606 474.49 389.501 454.724 405.431C449.394 409.728 442.685 411.604 436.756 414.918C430.827 418.232 425.207 423.998 425.349 431.059C425.413 434.447 426.831 437.679 428.571 440.545C435.983 452.898 449.839 460.542 463.715 460.399C477.59 460.257 491.131 452.499 499.129 440.559C501.133 437.571 502.899 434.244 505.806 432.251C511.606 428.253 519.249 431.052 526.171 431.648C541.581 432.97 556.997 420.807 560.064 404.849C561.353 398.039 561.128 389.901 566.342 385.625C570.55 382.176 576.473 382.914 581.809 382.325C591.567 381.261 599.268 374.871 604.566 366.523C606.996 362.694 607.279 358.12 610.592 355.105C614.162 351.792 619.685 354.238 623.101 348.898Z" fill="#3F3D56"/>
<g opacity="0.1">
<path opacity="0.1" d="M513.127 333.869C518.778 334.032 524.431 333.578 529.993 332.513C528.459 332.561 526.912 332.561 525.372 332.513C514.693 332.202 503.215 329.884 493.251 332.676C499.825 332.744 506.624 333.679 513.127 333.869Z" fill="black"/>
<path opacity="0.1" d="M492.903 433.6C489.996 435.592 488.231 438.919 486.226 441.907C480.066 450.999 471.062 457.526 460.789 460.345C461.543 460.379 462.297 460.4 463.057 460.393C476.946 460.25 490.473 452.492 498.471 440.552C500.476 437.564 502.242 434.237 505.148 432.245L505.651 431.919C501.101 431.262 496.635 431.032 492.903 433.6Z" fill="black"/>
<path opacity="0.1" d="M621.438 329.701C617.771 324.104 611.861 320.54 605.771 318.256C597.56 315.18 588.505 314.13 580.069 316.44C579.876 316.488 579.689 316.549 579.502 316.603C584.291 316.884 589.015 317.897 593.526 319.612C599.616 321.895 605.526 325.459 609.193 331.057C612.86 336.654 613.801 344.609 610.205 350.233C606.789 355.593 601.266 353.147 597.651 356.447C594.338 359.462 594.054 364.036 591.625 367.865C587.068 375.027 580.726 380.739 572.832 382.908C575.545 382.569 578.406 382.609 581.113 382.311C590.871 381.247 598.572 374.857 603.87 366.509C606.299 362.681 606.583 358.107 609.896 355.091C613.511 351.792 619.034 354.238 622.45 348.878C626.053 343.226 625.118 335.298 621.438 329.701Z" fill="black"/>
<path opacity="0.1" d="M568.874 383.666C563.57 384.249 557.648 383.517 553.407 386.966C548.193 391.242 548.444 399.38 547.13 406.19C544.867 418.096 535.677 427.915 524.766 431.567L525.533 431.642C540.943 432.963 556.359 420.8 559.426 404.842C560.715 398.032 560.49 389.894 565.704 385.618C566.901 384.676 568.26 383.986 569.706 383.585C569.416 383.592 569.151 383.639 568.874 383.666Z" fill="black"/>
</g>
<path d="M724.594 324.64C724.594 324.64 709.126 357.165 703.97 369.362C698.815 381.559 651.768 399.855 645.323 400.532C643.594 400.781 641.984 401.597 640.721 402.863C637.08 406.251 635.011 412.052 635.011 412.052C635.011 412.052 637.589 430.347 634.367 460.84C634.302 461.43 634.244 462.019 634.193 462.588C631.383 491.604 637.267 498.448 637.267 498.448C637.267 498.448 574.752 523.519 576.685 490.994C577.291 480.755 577.201 473.274 576.602 467.02C575.946 460.617 574.707 454.295 572.902 448.141C571.375 442.524 569.551 436.365 567.663 427.976C566.754 423.79 565.556 419.68 564.079 415.677C564.034 415.555 563.989 415.433 563.951 415.318C560.728 406.909 557.506 404.191 555.662 403.311C553.922 402.515 552.264 401.534 550.713 400.383C544.758 395.864 531.978 385.733 520.596 373.767C505.129 357.504 489.661 318.88 489.661 318.88C489.661 318.88 485.15 296.519 495.462 278.223C505.773 259.927 501.262 314.136 501.262 314.136C501.262 314.136 519.952 340.563 524.463 352.761C526.783 359.035 530.47 362.247 533.486 363.914C538.469 366.641 543.24 369.777 547.755 373.292C550.806 375.717 554.012 377.917 557.351 379.879C564.556 383.944 573.186 388.532 580.378 389.738C581.501 389.933 582.637 390.035 583.775 390.043C584.315 390.061 584.851 389.948 585.343 389.713C585.835 389.478 586.268 389.127 586.61 388.688C588.544 386.296 588.499 381.146 588.054 376.911C587.817 374.717 587.464 372.538 586.997 370.385C586.997 370.385 607.943 356.494 607.298 373.435C607.198 375.306 607.363 377.184 607.788 379.005C608.131 380.676 608.89 382.222 609.987 383.484C611.084 384.745 612.481 385.679 614.033 386.187C616.548 386.963 619.209 387.054 621.767 386.451C622.564 386.308 623.335 386.031 624.048 385.632C625.982 384.276 645.316 378.178 651.117 377.5C656.917 376.823 685.919 361.915 685.919 361.915L717.498 315.837C717.498 315.837 716.854 288.733 729.743 277.891C742.633 267.049 724.594 324.64 724.594 324.64Z" fill="#FABDBD"/>
<g opacity="0.1">
<path opacity="0.1" d="M634.193 458.522C633.63 463.968 633.382 469.444 633.452 474.921C633.516 471.343 633.742 467.257 634.193 462.588C634.244 462.019 634.302 461.429 634.367 460.84C635.494 450.404 636.032 439.908 635.978 429.405C635.879 438.551 635.341 447.686 634.367 456.774C634.328 457.364 634.244 457.953 634.193 458.522Z" fill="black"/>
<path opacity="0.1" d="M587.667 369.952C587.236 370.216 587.023 370.378 587.023 370.378C587.649 373.277 588.063 376.222 588.26 379.187C588.39 376.095 588.192 372.997 587.667 369.952Z" fill="black"/>
<path opacity="0.1" d="M501.565 310.457C501.881 305.714 502.351 297.21 502.261 289.647C502.151 299.757 501.294 310.071 501.294 310.071L501.565 310.457Z" fill="black"/>
<path opacity="0.1" d="M576.731 490.201C576.731 490.465 576.731 490.73 576.686 490.994C574.752 523.519 637.267 498.448 637.267 498.448C636.536 497.409 635.984 496.244 635.636 495.005C626.22 498.529 578.903 514.914 576.731 490.201Z" fill="black"/>
<path opacity="0.1" d="M724.594 320.574C724.594 320.574 709.127 353.099 703.971 365.296C698.815 377.493 651.768 395.789 645.323 396.467C643.594 396.716 641.984 397.531 640.721 398.798C637.08 402.186 635.011 407.986 635.011 407.986C635.011 407.986 635.166 409.091 635.353 411.191C636.075 409.45 637.931 405.452 640.721 402.863C641.984 401.597 643.594 400.781 645.323 400.532C651.768 399.855 698.815 381.559 703.971 369.362C709.127 357.165 724.594 324.639 724.594 324.639C724.594 324.639 735.492 289.844 734.294 279.436C733.301 292.771 724.594 320.574 724.594 320.574Z" fill="black"/>
<path opacity="0.1" d="M576.602 462.954C575.946 456.551 574.707 450.23 572.902 444.076C571.375 438.458 569.551 432.299 567.663 423.91C566.754 419.724 565.556 415.614 564.08 411.611C564.034 411.489 563.989 411.367 563.951 411.252C560.728 402.843 557.506 400.126 555.663 399.245C553.922 398.449 552.264 397.468 550.713 396.318C544.758 391.798 531.978 381.668 520.596 369.701C505.129 353.438 489.661 314.814 489.661 314.814C489.09 311.553 488.771 308.249 488.707 304.934C488.55 309.605 488.87 314.281 489.661 318.88C489.661 318.88 505.129 357.504 520.596 373.767C531.978 385.733 544.758 395.864 550.713 400.383C552.276 401.536 553.948 402.517 555.701 403.31C557.538 404.191 560.754 406.909 563.989 415.318C564.028 415.433 564.073 415.555 564.118 415.677C565.588 419.68 566.78 423.791 567.682 427.976C569.571 436.365 571.394 442.524 572.922 448.141C574.726 454.295 575.965 460.617 576.621 467.02C576.892 469.852 577.053 472.935 577.098 476.405C577.176 471.915 577.01 467.424 576.602 462.954Z" fill="black"/>
</g>
<path d="M640.431 433.519C639.447 435.229 638.586 437.014 637.853 438.858C636.88 441.704 636.874 444.801 636.693 447.816C636.436 452.048 635.824 456.247 634.863 460.366C634.708 461.124 634.492 461.868 634.218 462.588C634.026 463.073 633.772 463.529 633.464 463.943C633.121 464.385 632.717 464.771 632.266 465.089C631.574 465.574 630.843 465.993 630.081 466.342C621.11 470.747 611.326 474.636 601.537 473.118C597.398 472.358 593.393 470.941 589.659 468.917C586.114 467.108 582.106 464.96 578.432 466.464C577.868 466.765 577.261 466.964 576.634 467.054C576.513 467.056 576.392 467.045 576.273 467.02C575.061 466.776 575.061 462.48 574.784 461.213C573.727 456.347 573.566 452.404 572.935 448.175C572.599 445.837 572.08 443.532 571.382 441.284C568.804 433.085 568.024 424.344 568.024 415.752C568.024 415.325 565.124 415.752 564.157 415.711C563.912 415.711 563.777 415.67 563.835 415.582C563.891 415.498 563.955 415.421 564.028 415.352C564.365 415.064 564.759 414.858 565.182 414.749L565.942 414.511C569.925 413.326 574.32 412.831 577.298 409.883C580.391 406.841 581.165 401.982 581.029 397.537C580.991 396.107 580.327 392.638 580.436 389.758C581.559 389.953 582.695 390.055 583.833 390.063C584.373 390.081 584.909 389.968 585.401 389.733C585.893 389.498 586.327 389.147 586.669 388.708C587.744 390.897 588.674 393.161 589.453 395.484C590.548 398.316 591.386 401.298 592.991 403.859C595.569 408.033 600.325 410.778 605.056 410.358C609.786 409.938 614.188 406.116 615.032 401.21C615.773 396.907 614.053 390.714 614.091 386.241C616.606 387.017 619.267 387.108 621.825 386.506C621.934 386.782 622.026 387.065 622.102 387.353C623.552 392.584 625.486 398.588 630.352 400.444C633.497 401.637 637.215 400.742 640.122 402.477C640.345 402.612 640.56 402.761 640.766 402.924C641.437 403.449 642.015 404.093 642.474 404.828C643.668 406.901 644.377 409.242 644.543 411.659C645.287 419.214 643.855 426.83 640.431 433.519Z" fill="#6C63FF"/>
<path opacity="0.1" d="M607.788 378.998C604.573 380.301 601.112 380.79 597.684 380.426C594.256 380.063 590.957 378.856 588.054 376.904C587.817 374.71 587.464 372.531 586.997 370.378C586.997 370.378 607.943 356.487 607.298 373.428C607.199 375.3 607.364 377.177 607.788 378.998Z" fill="black"/>
<path d="M599.88 379.187C611.982 379.187 621.793 368.873 621.793 356.149C621.793 343.425 611.982 333.11 599.88 333.11C587.779 333.11 577.968 343.425 577.968 356.149C577.968 368.873 587.779 379.187 599.88 379.187Z" fill="#FABDBD"/>
<path d="M561.54 413.407C561.54 413.407 604.076 384.947 736.195 415.44C868.313 445.932 945.006 421.538 945.006 421.538V453.386C945.006 453.386 796.776 470.327 740.062 453.386C683.347 436.446 602.613 426.675 574.34 452.905L561.54 413.407Z" fill="#F86D70"/>
<path opacity="0.1" d="M561.54 413.407C561.54 413.407 604.076 384.947 736.195 415.44C868.313 445.932 945.006 421.538 945.006 421.538V453.386C945.006 453.386 796.776 470.327 740.062 453.386C683.347 436.446 602.613 426.675 574.34 452.905L561.54 413.407Z" fill="black"/>
<path d="M562.829 414.762C562.829 414.762 604.076 386.302 736.195 416.795C868.313 447.288 943.717 422.894 943.717 422.894L944.362 452.031C944.362 452.031 797.42 468.971 740.706 452.031C683.992 435.091 603.902 423.287 575.628 449.517L562.829 414.762Z" fill="#F86D70"/>
<path d="M547.323 458.536C547.323 458.536 504.787 486.996 372.669 456.503C240.55 426.011 246.995 450.405 246.995 450.405V418.557C246.995 418.557 312.087 401.616 368.802 418.557C425.516 435.497 506.25 445.268 534.524 419.038L547.323 458.536Z" fill="#F86D70"/>
<path opacity="0.1" d="M547.323 458.536C547.323 458.536 504.787 486.996 372.669 456.503C240.55 426.011 246.995 450.405 246.995 450.405V418.557C246.995 418.557 312.087 401.616 368.802 418.557C425.516 435.497 506.25 445.268 534.524 419.038L547.323 458.536Z" fill="black"/>
<path d="M546.034 457.181C546.034 457.181 504.787 485.641 372.669 455.148C240.55 424.655 248.284 449.049 248.284 449.049L247.639 419.912C247.639 419.912 311.443 402.972 368.157 419.912C424.872 436.852 504.961 448.656 533.235 422.426L546.034 457.181Z" fill="#F86D70"/>
<path d="M581.036 359.964C580.391 355.735 579.399 350.409 582.763 347.99C583.963 347.225 585.35 346.848 586.752 346.906C593.719 346.831 600.377 351.934 607.208 350.443C609.382 349.964 611.379 348.835 612.957 347.191C614.535 345.548 615.628 343.46 616.105 341.179C616.581 338.898 616.421 336.52 615.643 334.333C614.865 332.145 613.503 330.24 611.72 328.848C609.032 326.747 605.636 325.988 602.349 325.276C593.706 323.406 584.684 321.543 576.151 323.921C567.618 326.3 559.82 334.343 560.503 343.572C560.825 347.99 562.965 352.002 565.201 355.769C566.902 358.629 573.528 372.032 576.744 372.235C581.281 372.513 581.481 362.728 581.036 359.964Z" fill="#3F3D56"/>
<path d="M635.333 486.928C635.333 486.928 590.864 498.448 576.041 486.928C576.041 486.928 569.596 513.355 571.53 526.907C571.53 526.907 603.109 528.94 606.332 530.973C606.332 530.973 606.976 525.552 610.199 528.263C610.199 528.263 621.155 514.71 641.134 526.907C641.134 526.907 645.001 495.059 635.333 486.928Z" fill="#6C63FF"/>
<path opacity="0.1" d="M611.732 328.847C611.274 328.498 610.794 328.181 610.295 327.899C611.625 329.488 612.535 331.417 612.934 333.492C613.332 335.568 613.206 337.716 612.567 339.724C611.929 341.732 610.8 343.528 609.294 344.934C607.788 346.339 605.958 347.304 603.986 347.733C597.154 349.223 590.497 344.121 583.53 344.195C582.128 344.138 580.74 344.515 579.54 345.28C576.176 347.699 577.162 353.025 577.807 357.253C578.232 360.018 578.058 369.802 573.534 369.538H573.457C574.7 371.131 575.86 372.208 576.756 372.249C581.268 372.513 581.455 362.762 581.029 359.964C580.385 355.735 579.399 350.409 582.763 347.99C583.963 347.225 585.35 346.848 586.752 346.906C593.719 346.831 600.377 351.934 607.208 350.443C609.382 349.964 611.378 348.835 612.957 347.191C614.535 345.548 615.628 343.46 616.105 341.179C616.581 338.898 616.421 336.52 615.643 334.333C614.865 332.145 613.502 330.24 611.719 328.847H611.732Z" fill="black"/>
<g opacity="0.1">
<path opacity="0.1" d="M291.657 296.661C291.657 296.661 243.47 275.357 237.154 313.777C237.154 313.777 233.86 319.761 238.443 324.707C238.443 324.707 239.429 322.058 244.088 324.802C245.752 325.764 247.517 326.517 249.347 327.045C251.821 327.762 254.449 327.615 256.836 326.625C256.836 326.625 272.684 325.724 286.012 303.925C286.012 303.925 291.722 300.212 292.012 298.822L282.461 299.5C282.461 299.5 283.189 306.852 279.238 311.263C279.238 311.263 282.751 299.859 281.062 299.534C280.721 299.466 276.016 300.123 276.016 300.123C276.016 300.123 277.234 312.903 270.86 319.517C270.86 319.517 276.776 306.513 274.198 300.354L267.154 301.784C267.154 301.784 269.088 315.227 262.114 323.054C262.114 323.054 267.844 309.231 265.633 302.204L258.879 304.589C258.879 304.589 260.51 317.748 254.677 324.24C254.677 324.24 259.768 307.564 257.371 305.266C257.371 305.266 251.3 307.855 249.998 309.332C249.998 309.332 250.965 318.819 247.253 322.207C247.253 322.207 249.534 310.687 248.406 310.213C248.406 310.213 241.349 315.797 239.203 320.614C239.203 320.614 241.884 313.256 247.517 309.095C247.517 309.095 242.786 308.255 239.139 310.335C239.139 310.335 241.581 305.449 249.225 307.767C249.225 307.767 254.89 303.647 256.024 303.701C256.024 303.701 248.793 300.313 243.566 300.726C243.566 300.726 249.167 297.338 257.796 303.003L264.525 300.442C264.525 300.442 255.186 295.407 250.501 295.428C250.501 295.428 256.727 292.9 266.278 299.947L273.167 298.463C273.167 298.463 265.433 293.483 260.22 292.324C260.22 292.324 266.478 291.287 275.159 298.124L279.876 297.704C279.876 297.704 274.166 294.174 272.439 293.313C270.712 292.453 270.789 291.89 270.789 291.89C274.9 292.641 278.731 294.579 281.855 297.487C281.855 297.487 291.612 297.291 291.657 296.661Z" fill="#6C63FF"/>
</g>
<g opacity="0.1">
<path opacity="0.1" d="M289.879 258.47C289.879 258.47 272.774 216.953 248.226 235.994C248.226 235.994 243.025 237.58 243.07 243.244C243.07 243.244 245.094 242.262 246.37 246.68C246.847 248.249 247.496 249.754 248.303 251.166C249.371 253.064 250.998 254.546 252.937 255.387C252.937 255.387 262.836 264.345 282.583 259.378C282.583 259.378 287.99 260.598 288.918 259.941L282.879 254.615C282.879 254.615 279.335 259.419 274.579 259.656C274.579 259.656 282.847 254.981 282.016 253.775C281.848 253.531 278.703 251.105 278.703 251.105C278.703 251.105 272.497 259.426 265.169 259.555C265.169 259.555 275.732 255.367 277.537 250.17L272.581 246.782C272.581 246.782 266.432 255.923 258.06 256.397C258.06 256.397 268.952 251.654 271.446 246.124L266.142 243.495C266.142 243.495 259.981 252.304 253.014 252.636C253.014 252.636 265.072 245.779 264.886 242.98C264.886 242.98 259.878 240.88 258.293 241.001C258.293 241.001 253.736 247.202 249.669 247.025C249.669 247.025 257.268 241.544 256.849 240.588C256.849 240.588 249.631 239.68 245.744 241.266C245.744 241.266 251.326 238.501 256.926 239.409C256.926 239.409 254.574 236.068 251.293 235.14C251.293 235.14 255.392 233.697 258.679 239.653C258.679 239.653 264.273 240.595 264.924 241.3C264.924 241.3 262.475 234.937 259.124 232.071C259.124 232.071 264.28 233.426 266.342 241.943L271.723 244.457C271.723 244.457 268.907 235.872 266.078 233.087C266.078 233.087 271.15 235.31 273.006 245.216L277.898 248.462C277.898 248.462 275.996 240.873 273.534 237.092C273.534 237.092 277.814 240.215 279.27 249.478L282.299 252.053C282.299 252.053 280.817 246.538 280.256 244.993C279.696 243.448 280.05 243.163 280.05 243.163C282.082 246.073 283.307 249.519 283.588 253.117C283.588 253.117 289.53 258.823 289.879 258.47Z" fill="#6C63FF"/>
</g>
</g>
<defs>
<clipPath id="clip0">
<rect width="709" height="496" fill="white" transform="translate(236 231)"/>
</clipPath>
</defs>
</svg>
