<svg id="Capa_1" enable-background="new 0 0 512 512" height="512" viewBox="0 0 512 512" width="512" xmlns="http://www.w3.org/2000/svg"><g><g><path clip-rule="evenodd" d="m407.342 155.007c0-9.763-8.004-18.002-17.767-18.002h-17.093l-23.423 27.652c0 7.447 10.054 15.576 19.846 31.104 19.468-.205 38.437-10.496 38.437-29.525z" fill="#ea9a58" fill-rule="evenodd"/></g><g><path clip-rule="evenodd" d="m162.94 169.255-23.423-32.25h-17.063c-9.792 0-17.796 8.239-17.796 18.002v11.229c0 19.028 18.969 29.319 38.437 29.525 12.72-17.818 19.845-26.506 19.845-26.506z" fill="#ea9a58" fill-rule="evenodd"/></g><g><path clip-rule="evenodd" d="m264.934 70.139c-26.994-.743-129.939 12.642-125.416 67.061v35.623c0 7.447 1.261 15.246 3.577 23.133 8.092 27.296 29.084 55.589 55.823 74.149 8.766 6.098 18.178 11.141 27.911 14.748 10.555 3.929 19.878 5.893 29.172 5.893 9.323 0 18.617-1.964 29.172-5.893 9.763-3.606 19.145-8.649 27.911-14.748 26.739-18.559 47.76-46.852 55.823-74.149 2.316-7.887 3.577-15.686 3.577-23.133v-35.623c-4.309-67.805-107.55-67.061-107.55-67.061z" fill="#ffbc85" fill-rule="evenodd"/></g><g><path clip-rule="evenodd" d="m456.539 401.495c-9.382-53.654-55.119-77.872-101.853-92.767-15.685 68.666-41.75 124.637-74.792 203.242l121.702.03h60.074c10.174 0 13.721-2.609 12.05-12.255z" fill="#eff6ff" fill-rule="evenodd"/></g><g><path clip-rule="evenodd" d="m157.314 308.729c-46.704 14.894-92.471 39.112-101.853 92.767l-17.181 98.249c-1.671 9.646 1.877 12.255 12.05 12.255h60.103l121.672-.029c-35.592-72.067-56.321-123.581-74.791-203.242z" fill="#eff6ff" fill-rule="evenodd"/></g><g><path clip-rule="evenodd" d="m198.917 269.91v27.296l-9.558 21.257c0 31.372 35.241 57.085 66.641 57.085s74.469-27.003 64.384-56.733l-7.3-21.579v-27.326c-8.767 6.098-105.401 6.098-114.167 0z" fill="#f5a96c" fill-rule="evenodd"/></g><g><path clip-rule="evenodd" d="m183.524 38.463c-40.43-3.606-44.007 37.441-44.007 52.892v45.65c14.219-23.016 40.753-42.777 61.217-30.932 38.261 22.077 89.627 31.43 134.543 32.251 13.105.264 25.683-.235 37.205-1.319 29.113-11.347 39.991-38.731 42.571-70.337.792-9.529 1.026-11.024-6.949-6.45-14.542 8.356-31.869 13.809-48.991 12.901-.586-.029-1.173-.059-1.73-.117 27.941-18.53 37.059-49.257 34.508-64.737-.792-4.838-1.29-3.606-5.776-1.994-84.906 30.14-149.495-50.195-202.591 32.192z" fill="#7e707d" fill-rule="evenodd"/></g><g><path clip-rule="evenodd" d="m380.018 71.271c-11.112 35.828-54.738 46.647-83.968 46.852-30.902-.586-58.051 1.583-88.659-8.415 37.41 19.468 85.522 27.853 127.888 28.616 13.105.264 25.683-.235 37.205-1.319 29.113-11.347 39.991-38.731 42.571-70.337.792-9.529 1.026-11.024-6.949-6.45-8.592 4.955-18.179 8.854-28.088 11.053z" fill="#6a5c6b" fill-rule="evenodd"/></g><g><path clip-rule="evenodd" d="m279.895 511.971c38.026-76.201 43.685-126.484 33.189-214.559-.088 31.313-25.742 56.88-57.083 56.88-31.4 0-57.083-25.684-57.083-57.055-7.594 87.108-4.515 137.508 33.189 214.735h23.893 23.895z" fill="#9fd4fe" fill-rule="evenodd"/></g><g><path clip-rule="evenodd" d="m331.701 180.603c-13.868 46.882-72.27 104.084-126.51 93.441 6.919 4.251 14.19 7.858 21.637 10.614 10.555 3.929 19.878 5.893 29.172 5.893 9.323 0 18.617-1.964 29.172-5.893 9.763-3.606 19.145-8.649 27.911-14.748 26.739-18.559 47.76-46.852 55.823-74.149 2.316-7.887 3.577-15.686 3.577-23.133v-35.623c-11.522 1.085-24.1 1.583-37.205 1.319v19.146c-.001 7.477-1.261 15.246-3.577 23.133z" fill="#f5a96c" fill-rule="evenodd"/></g><g><path clip-rule="evenodd" d="m350.201 394.84-6.128-13.018c-1.935-4.075-2.433-6.304 1.319-10.672l9.792-12.285c5.043-5.776 3.929-12.813 3.577-14.718l-4.075-35.418c-14.102-4.515-28.292-8.151-41.603-11.493-.117 81.391-6.04 137.391-33.189 214.735l67.785-102.09c4.222-6.539 5.893-7.858 2.522-15.041z" fill="#7e707d" fill-rule="evenodd"/></g><g><path clip-rule="evenodd" d="m232.105 511.971c-27.296-77.814-33.189-128.067-33.189-214.735-13.311 3.342-27.501 6.978-41.603 11.493l-4.075 35.418c-.557 5.629.792 11.083 3.137 14.132l10.232 12.871c3.782 4.369 3.254 6.597 1.349 10.672l-6.128 13.018c-3.401 7.183-1.73 8.503 2.521 15.041z" fill="#7e707d" fill-rule="evenodd"/></g><g><path clip-rule="evenodd" d="m354.686 308.729 2.697 23.456c35.094 15.569 64.882 39.552 72.241 81.684l13.164 75.292 3.196 18.354c.293 1.701.44 3.196.41 4.486h15.275c10.174 0 13.721-2.609 12.05-12.255l-1.466-8.356-15.715-89.893c-9.381-53.656-55.118-77.874-101.852-92.768z" fill="#d9eeff" fill-rule="evenodd"/></g><g><path clip-rule="evenodd" d="m313.083 297.236c0 .264 0 .146 0 0zm0 .234-.117 20.084c15.979 3.694 36.179 10.965 44.418 14.63l-2.697-23.456c-14.102-4.515-28.292-8.151-41.603-11.493v.059.117c-.001.03-.001.03-.001.059z" fill="#6a5c6b" fill-rule="evenodd"/></g><g><path d="m296.499 103.453c-.305 0-.614-.018-.924-.054-36.783-4.351-74.322-25.199-90.968-42.607-2.973-3.109-2.863-8.038.246-11.01 3.108-2.973 8.037-2.862 11.01.245 12.652 13.231 46.315 33.738 81.542 37.904 4.271.505 7.324 4.377 6.819 8.648-.47 3.961-3.834 6.874-7.725 6.874z" fill="#6a5c6b"/></g><g><path d="m359.117 80.905c-.061 0-.121 0-.183-.002-26.034-.598-56.781-8.312-74.771-18.76-3.719-2.16-4.983-6.927-2.823-10.645 2.16-3.72 6.926-4.982 10.645-2.824 13.463 7.819 40.906 16.052 67.307 16.659 4.299.099 7.705 3.664 7.606 7.964-.097 4.239-3.564 7.608-7.781 7.608z" fill="#6a5c6b"/></g><g><path d="m214.778 188.214c-1.954 0-3.908-.729-5.422-2.197-3.833-3.717-10.087-3.712-13.942.011-3.093 2.989-8.024 2.901-11.011-.19-2.988-3.094-2.902-8.023.191-11.011 9.833-9.5 25.806-9.494 35.606.011 3.087 2.995 3.162 7.925.168 11.011-1.527 1.575-3.558 2.365-5.59 2.365z" fill="#7e707d"/></g><g><path d="m321.732 188.214c-1.954 0-3.908-.729-5.422-2.197-3.833-3.718-10.068-3.718-13.901 0-3.086 2.993-8.017 2.92-11.011-.167-2.995-3.088-2.92-8.017.167-11.012 9.812-9.517 25.776-9.517 35.589 0 3.087 2.995 3.162 7.925.168 11.011-1.527 1.575-3.558 2.365-5.59 2.365z" fill="#7e707d"/></g><g><path d="m255.883 251.911c-8.858 0-17.186-3.45-23.45-9.714-3.041-3.041-3.041-7.972.001-11.012 3.04-3.042 7.971-3.042 11.013 0 3.322 3.322 7.739 5.152 12.437 5.152s9.114-1.83 12.436-5.152c3.04-3.042 7.971-3.041 11.013-.001 3.041 3.041 3.041 7.972.001 11.013-6.266 6.265-14.593 9.714-23.451 9.714z" fill="#7e707d"/></g><g><path clip-rule="evenodd" d="m226.828 284.658c-9.734-3.606-19.145-8.649-27.911-14.748v27.326c30.96 29.788 79.981 19.673 88.073 12.842 1.085-.938 1.085.997 1.085 2.434v31.87c2.903-1.994 5.6-4.222 8.092-6.685 10.819-10.731 16.917-25.215 16.917-40.461v-27.296c-8.766 6.069-18.148 11.112-27.911 14.718-10.555 3.929-19.849 5.893-29.172 5.893-9.295 0-18.618-1.965-29.173-5.893z" fill="#ea9a58" fill-rule="evenodd"/></g><g><path clip-rule="evenodd" d="m279.895 511.971c38.026-76.201 43.685-126.484 33.189-214.559-.059 19.351-9.91 36.532-24.803 46.823 2.082 60.72-8.62 107.426-38.642 167.736h6.361z" fill="#85beef" fill-rule="evenodd"/></g><g><path d="m102.647 512v-40.816c0-4.296 3.482-7.788 7.788-7.788 4.296 0 7.788 3.492 7.788 7.788v40.816zm291.16 0v-40.816c0-4.296 3.492-7.788 7.788-7.788 4.306 0 7.788 3.492 7.788 7.788v40.816z" fill="#d9eeff"/></g></g></svg>