<svg id="Layer_1" enable-background="new 0 0 512 512" height="512" viewBox="0 0 512 512" width="512" xmlns="http://www.w3.org/2000/svg"><g><g><path d="m388.556 194.263 12.122-10.898c42.169-182.607-87.068-163.338-87.068-163.338s-39.002-34.475-109.156-12.96c-68.489 21.004-74.29 67.829-113.922 91.446-3.152 1.878-3.545 6.279-.711 8.608 6.016 4.944 17.288 11.548 34.613 11.603-1.092 18.94.735 40.361 5.962 64.408l12.079 11.132h246.081z" fill="#2d4456"/><path d="m162.843 156.599c-16.031 0-29.397 11.398-32.441 26.532.794 3.652 1.661 7.36 2.613 11.133h33.25v-37.489c-1.126-.117-2.267-.176-3.422-.176z" fill="#253847"/><path d="m398.018 194.263c.954-3.714 1.833-7.34 2.655-10.9-2.954-15.249-16.371-26.765-32.483-26.765-1.156 0-2.297.06-3.422.175v37.489h33.25z" fill="#253847"/><path d="m166.265 215.476v-39.778c-1.125-.115-2.267-.175-3.422-.175-14.989 0-27.65 9.964-31.721 23.63-.893 2.999 13.444 33.097 31.721 33.097l3.673-9.671c-.167-2.346-.251-4.714-.251-7.103z" fill="#ffc4ad"/><path d="m162.843 222.787c-14.989 0-27.643-9.967-31.714-23.632-.894 2.999-1.38 6.173-1.38 9.462 0 18.277 14.817 33.094 33.094 33.094 2.312 0 4.568-.239 6.747-.69l7.505-9.078-10.572-9.365c-1.209.135-2.436.209-3.68.209z" fill="#ffb69f"/><path d="m414.625 502.538h-298.217l-9.462-9.462v-65.522c0-67.538 54.75-122.288 122.288-122.288h72.565c67.538 0 122.288 54.75 122.288 122.288v65.522z" fill="#86dcff"/><path d="m112.203 512h49.503l7.885-9.462 7.885 9.462h176.082l7.885-9.462 7.885 9.462h49.503c2.903 0 5.257-2.353 5.257-5.257v-13.667h-317.142v13.667c0 2.904 2.353 5.257 5.257 5.257z" fill="#56caed"/><path d="m247.116 350.265 18.397-9.462 18.397 9.462 14.037 76.934-3.84 13.341-28.591 28.885-28.38-28.667-4.057-13.56z" fill="#ff5876"/><path d="m261.781 456.189-28.701-28.991-2.424 13.284c-.308 1.689.228 3.422 1.436 4.642l29.689 29.989c2.057 2.078 5.415 2.078 7.472 0l29.683-29.988c1.208-1.22 1.743-2.953 1.435-4.642l-2.424-13.284-28.695 28.99c-2.057 2.078-5.414 2.078-7.471 0z" fill="#e6485d"/><path d="m283.91 350.265h-36.794l-17.475-44.999h71.745z" fill="#e6485d"/><path d="m364.768 215.476v-39.778c1.125-.115 2.267-.175 3.422-.175 14.989 0 27.65 9.964 31.721 23.63.893 2.999-13.444 33.097-31.721 33.097l-3.673-9.671c.167-2.346.251-4.714.251-7.103z" fill="#ffc4ad"/><path d="m368.19 222.787c14.989 0 27.643-9.967 31.714-23.632.893 2.999 1.38 6.173 1.38 9.462 0 18.277-14.817 33.094-33.095 33.094-2.312 0-4.568-.239-6.747-.69l-7.505-9.078 10.572-9.365c1.21.135 2.437.209 3.681.209z" fill="#ffb69f"/><path d="m298.502 80.435c-37.508 41.957-109.143 54.684-127.738 57.349-2.587.371-4.499 2.588-4.499 5.201v51.278 11.751c0 54.815 44.436 99.251 99.251 99.251 54.815 0 99.251-44.436 99.251-99.251v-9.462-52.887c0-2.087-1.227-3.976-3.139-4.81-9.328-4.071-37.293-18.969-54.459-57.032-1.55-3.438-6.153-4.2-8.667-1.388z" fill="#ffe0cc"/><path d="m265.517 295.804c-54.815 0-99.252-44.436-99.252-99.251v18.924c0 54.815 44.437 99.251 99.251 99.251 54.815 0 99.251-44.436 99.251-99.251v-18.924c.001 54.815-44.435 99.251-99.25 99.251z" fill="#ffceb3"/><ellipse cx="207.175" cy="196.098" fill="#e4eef9" rx="40.91" ry="40.91" transform="matrix(.192 -.981 .981 .192 -25.111 361.686)"/><ellipse cx="323.858" cy="196.098" fill="#e4eef9" rx="40.91" ry="40.91" transform="matrix(.994 -.106 .106 .994 -18.908 35.318)"/><path d="m177.475 493.076v-50.404c0-4.355-3.53-7.885-7.885-7.885s-7.885 3.53-7.885 7.885v50.404l7.885 9.462z" fill="#41adf7"/><path d="m161.705 493.076h15.77v18.924h-15.77z" fill="#1ba0ea"/><path d="m369.328 493.076v-50.404c0-4.355-3.53-7.885-7.885-7.885s-7.885 3.53-7.885 7.885v50.404l7.885 9.462z" fill="#41adf7"/><path d="m353.558 493.076h15.77v18.924h-15.77z" fill="#1ba0ea"/></g><g><path d="m290.295 239.349c-4.036-1.661-8.652.263-10.313 4.297-.027.066-3.063 6.666-14.452 6.666s-14.425-6.6-14.452-6.666c-1.661-4.034-6.277-5.958-10.313-4.297-4.034 1.661-5.958 6.278-4.298 10.312 2.516 6.11 11.468 16.451 29.062 16.451s26.546-10.341 29.062-16.451c1.662-4.034-.261-8.651-4.296-10.312z" fill="#ff5876"/><g fill="#2d4456"><path d="m217.347 215.048c4.363 0 7.9-3.537 7.9-7.9v-22.293c0-4.363-3.536-7.9-7.9-7.9-4.363 0-7.9 3.537-7.9 7.9v22.293c.001 4.363 3.537 7.9 7.9 7.9z"/><path d="m313.714 176.956c-4.363 0-7.9 3.537-7.9 7.9v22.293c0 4.363 3.536 7.9 7.9 7.9 4.363 0 7.9-3.537 7.9-7.9v-22.293c-.001-4.363-3.537-7.9-7.9-7.9z"/></g></g><path d="m323.857 147.303c-24.221 0-44.367 17.742-48.148 40.911h-20.385c-3.781-23.169-23.928-40.911-48.148-40.911-26.906 0-48.796 21.89-48.796 48.796s21.89 48.795 48.796 48.795c24.221 0 44.367-17.742 48.148-40.91h20.385c3.782 23.168 23.928 40.91 48.148 40.91 26.905 0 48.796-21.89 48.796-48.795 0-26.906-21.89-48.796-48.796-48.796zm-116.681 81.821c-18.21 0-33.026-14.815-33.026-33.025s14.815-33.026 33.026-33.026c18.209 0 33.025 14.815 33.025 33.026-.001 18.21-14.816 33.025-33.025 33.025zm116.681 0c-18.209 0-33.025-14.815-33.025-33.025s14.815-33.026 33.025-33.026c18.211 0 33.026 14.815 33.026 33.026 0 18.21-14.815 33.025-33.026 33.025z" fill="#2d4456"/></g></svg>